<?xml version="1.0" encoding="UTF-8"?>
<svg xmlns="http://www.w3.org/2000/svg" width="400" height="120" viewBox="0 0 400 120">
  <!-- Play button -->
  <g id="play">
    <circle cx="20" cy="20" r="15" fill="none" stroke="white" stroke-width="2"/>
    <polygon points="15,12 28,20 15,28" fill="white"/>
  </g>
  <!-- Pause button -->
  <g id="pause" transform="translate(40, 0)">
    <circle cx="20" cy="20" r="15" fill="none" stroke="white" stroke-width="2"/>
    <rect x="14" y="12" width="4" height="16" fill="white"/>
    <rect x="22" y="12" width="4" height="16" fill="white"/>
  </g>
  <!-- Stop button -->
  <g id="stop" transform="translate(80, 0)">
    <circle cx="20" cy="20" r="15" fill="none" stroke="white" stroke-width="2"/>
    <rect x="12" y="12" width="16" height="16" fill="white"/>
  </g>
  <!-- Volume buttons -->
  <g id="volume" transform="translate(0, 40)">
    <circle cx="20" cy="20" r="15" fill="none" stroke="white" stroke-width="2"/>
    <path d="M12,20 L16,20 L22,14 L22,26 L16,20 L12,20" fill="white"/>
  </g>
  <g id="volume-mute" transform="translate(40, 40)">
    <circle cx="20" cy="20" r="15" fill="none" stroke="white" stroke-width="2"/>
    <path d="M12,20 L16,20 L22,14 L22,26 L16,20 L12,20" fill="white"/>
    <line x1="28" y1="12" x2="12" y2="28" stroke="white" stroke-width="2"/>
  </g>
  <!-- Fullscreen buttons -->
  <g id="fullscreen" transform="translate(80, 40)">
    <circle cx="20" cy="20" r="15" fill="none" stroke="white" stroke-width="2"/>
    <path d="M12,16 L16,16 L16,12 L12,12 L12,16 M24,16 L28,16 L28,12 L24,12 L24,16 M12,24 L16,24 L16,28 L12,28 L12,24 M24,24 L28,24 L28,28 L24,28 L24,24" fill="white"/>
  </g>
</svg> 